<?xml version="1.0" encoding="UTF-8"?> <svg xmlns="http://www.w3.org/2000/svg" width="136" height="24" viewBox="0 0 136 24" fill="none"><path fill-rule="evenodd" clip-rule="evenodd" d="M128.111 14.9477L125.836 16.1665C126.854 17.9006 128.561 18.8145 131.12 18.8145C134.413 18.8382 136 16.8224 136 15.0646C136 12.604 133.749 11.9475 131.759 11.5258C131.684 11.509 131.609 11.4926 131.536 11.4765C129.874 11.1103 128.94 10.9043 128.94 10.0959C128.94 9.32258 129.603 8.68979 131.001 8.68979C132.256 8.68979 133.134 9.18203 133.702 10.0259L135.835 8.8772C134.84 7.44793 133.299 6.60401 131.001 6.60401C128.181 6.58029 126.381 8.29126 126.381 10.1428C126.381 12.5571 128.513 13.213 130.527 13.6116C130.656 13.6396 130.785 13.6667 130.912 13.6936C132.276 13.9815 133.465 14.2326 133.465 15.1114C133.465 15.9316 132.707 16.635 131.238 16.635C129.816 16.635 128.797 16.049 128.111 14.9477ZM103.276 12.6979C103.276 10.5652 101.641 8.90111 99.5327 8.90111C97.4001 8.90111 95.8131 10.6121 95.8131 12.6979C95.8131 14.8074 97.4001 16.5177 99.5327 16.5177C101.641 16.5177 103.276 14.8305 103.276 12.6979ZM95.9311 16.9868V18.5803H93.4436V1.47119H95.9551V8.4325C96.8316 7.3306 98.3006 6.62782 99.8882 6.62782C102.991 6.62782 105.788 8.97099 105.788 12.7215C105.788 16.4477 102.921 18.8146 99.9122 18.8146C98.3239 18.8146 96.8077 18.1349 95.9311 16.9868ZM80.0555 1.47144H82.567V8.33845C83.3728 7.30712 84.6756 6.62748 86.2159 6.62748C89.2017 6.62748 91.0261 8.54957 91.0261 11.7367V18.5805H88.4432V11.9715C88.4432 10.0263 87.4953 8.80755 85.5761 8.80755C83.8938 8.80755 82.591 10.0725 82.591 12.1352V18.5805H80.0555V1.47144ZM110.03 11.4555H117.138C116.759 9.76824 115.456 8.83062 113.631 8.83062C111.878 8.83062 110.503 9.9088 110.03 11.4555ZM107.471 12.7679C107.471 9.32286 110.149 6.62742 113.632 6.62742C117.138 6.62742 119.721 9.13546 119.721 12.6042V13.5881H109.912C110.243 15.3934 111.665 16.5884 113.726 16.5884C115.338 16.5884 116.569 15.7445 117.186 14.4789L119.27 15.6277C118.228 17.5492 116.357 18.8147 113.726 18.8147C109.983 18.8147 107.471 16.1667 107.471 12.7679ZM38.2553 8.90109C40.4119 8.90109 41.999 10.6121 41.999 12.6978C41.999 14.8073 40.4119 16.5177 38.2553 16.5177C36.1467 16.5177 34.5117 14.8305 34.5117 12.6978C34.5117 10.5652 36.1467 8.90109 38.2553 8.90109ZM37.9236 6.6279C34.8197 6.6279 32 8.97107 32 12.7216C32 16.4477 34.8911 18.8146 37.8996 18.8146C39.4633 18.8146 40.9567 18.1119 41.8567 16.9631V18.5804H44.3916V6.86216H41.8567V8.38573C40.9801 7.30755 39.4878 6.6279 37.9236 6.6279ZM71.8082 8.90109C73.9168 8.90109 75.5518 10.5652 75.5518 12.6978C75.5518 14.8305 73.9168 16.5177 71.8082 16.5177C69.6522 16.5177 68.0646 14.8073 68.0646 12.6978C68.0646 10.6121 69.6522 8.90109 71.8082 8.90109ZM68.2069 23.9713V17.1274C69.06 18.2056 70.5523 18.8146 72.1879 18.8146C75.1731 18.8146 78.0635 16.4477 78.0635 12.7216C78.0635 8.97107 75.2672 6.6279 72.1639 6.6279C70.5763 6.6279 69.0834 7.3544 68.2069 8.50256V6.86216H65.6959V23.9713H68.2069ZM61.0734 11.4555H53.9657C54.4393 9.9088 55.8135 8.83062 57.5672 8.83062C59.3917 8.83062 60.6951 9.76824 61.0734 11.4555ZM57.5675 6.62742C54.0841 6.62742 51.4065 9.32286 51.4065 12.7679C51.4065 16.1667 53.9186 18.8147 57.6623 18.8147C60.2925 18.8147 62.1643 17.5492 63.2063 15.6277L61.1217 14.4789C60.5053 15.7445 59.2739 16.5884 57.6623 16.5884C55.601 16.5884 54.1788 15.3934 53.8479 13.5881H63.6566V12.6042C63.6566 9.13546 61.0737 6.62742 57.5675 6.62742ZM49.3691 18.5805H46.8336V1.47144H49.3691V18.5805ZM124.319 18.5807H121.761V6.86186H124.319V18.5807ZM124.746 3.37011C124.746 2.38563 124.035 1.68286 123.039 1.68286C122.045 1.68286 121.333 2.38563 121.333 3.37011C121.333 4.35458 122.021 5.05736 123.039 5.05736C124.035 5.05736 124.746 4.35458 124.746 3.37011Z" fill="#001238"></path><path fill-rule="evenodd" clip-rule="evenodd" d="M0 22.4994H6.07882V16.4206H0V22.4994Z" fill="#FE8E20"></path><path fill-rule="evenodd" clip-rule="evenodd" d="M11.25 22.5001H22.5V11.2501H11.25V22.5001Z" fill="#296DFE"></path><path fill-rule="evenodd" clip-rule="evenodd" d="M11.2501 5.62501C11.2501 8.73143 8.73178 11.2497 5.62536 11.2497C2.51834 11.2497 6.10352e-05 8.73143 6.10352e-05 5.62501C6.10352e-05 2.51859 2.51834 0.000305176 5.62536 0.000305176C8.73178 0.000305176 11.2501 2.51859 11.2501 5.62501Z" fill="#E63739"></path><path fill-rule="evenodd" clip-rule="evenodd" d="M16.4068 6.09318H22.5V0H16.4068V6.09318Z" fill="#B65FBD"></path></svg> 